<?xml version="1.0" standalone="no"?>
<!DOCTYPE svg PUBLIC "-//W3C//DTD SVG 20010904//EN"
 "http://www.w3.org/TR/2001/REC-SVG-20010904/DTD/svg10.dtd">
<svg version="1.0" xmlns="http://www.w3.org/2000/svg"
 width="800.000000pt" height="166.000000pt" viewBox="0 0 800.000000 166.000000"
 preserveAspectRatio="xMidYMid meet">

<g transform="translate(0.000000,166.000000) scale(0.100000,-0.100000)"
fill="#000000" stroke="none">
<path d="M5226 1620 c-28 -43 -36 -44 -105 -18 -30 11 -45 -1 -60 -53 -16 -54
-6 -61 31 -20 29 33 30 33 73 21 50 -14 115 1 115 26 0 9 -5 12 -11 8 -6 -3
-3 6 6 20 16 24 22 26 60 20 62 -9 66 12 5 25 -77 17 -85 14 -114 -29z"/>
<path d="M3439 1370 c-95 -16 -166 -71 -149 -114 19 -46 68 -313 63 -343 -4
-25 -1 -34 12 -39 9 -4 21 -17 26 -30 11 -30 29 -32 22 -3 -5 19 -4 20 15 8
21 -13 46 -4 26 9 -6 4 -16 17 -22 28 -11 20 -5 24 96 69 59 26 130 60 157 75
40 22 54 25 73 17 17 -8 26 -6 42 8 30 27 26 89 -10 151 -45 80 -118 132 -225
160 -55 15 -59 15 -126 4z m192 -86 c12 -11 28 -32 36 -47 14 -28 14 -29 -86
-135 -145 -156 -181 -190 -174 -163 4 15 1 21 -11 21 -20 0 -20 -11 5 142 11
71 19 134 16 141 -2 6 -12 -42 -24 -108 l-20 -120 -7 115 c-10 149 -8 164 26
168 21 3 27 -2 31 -20 4 -19 4 -19 6 6 l1 29 90 -5 c70 -4 96 -10 111 -24z
m-274 -257 c-1 -5 -14 48 -29 118 l-26 127 22 7 c21 8 21 5 28 -118 4 -69 7
-130 5 -134z m347 108 c6 -29 3 -32 -121 -108 l-128 -78 55 58 c191 202 180
195 194 128z m26 -66 c0 -4 -6 -9 -12 -12 -7 -3 -58 -26 -113 -52 -55 -26 -97
-44 -93 -40 4 4 51 36 105 70 91 59 112 65 113 34z"/>
<path d="M1327 1128 c-2 -7 -2 -28 1 -45 4 -30 2 -33 -21 -33 -50 0 -72 -20
-120 -109 -26 -49 -47 -97 -47 -107 0 -11 21 -46 45 -78 43 -57 52 -85 39
-120 -9 -23 -24 -20 -56 11 -32 31 -34 40 -11 65 25 28 -2 23 -53 -9 -53 -34
-56 -48 -9 -40 21 3 33 2 30 -4 -4 -5 1 -9 9 -9 17 0 56 -46 56 -66 0 -8 -10
-14 -22 -14 -46 0 -106 -39 -127 -84 -25 -50 -26 -75 -6 -122 l14 -35 -33 6
c-28 6 -39 2 -69 -25 -38 -33 -58 -34 -127 -8 l-25 10 25 13 24 13 -41 11
c-52 14 -68 32 -53 61 6 11 9 24 6 29 -3 5 15 1 41 -8 36 -12 47 -13 50 -3 3
6 14 12 24 12 34 0 11 18 -32 25 -29 5 -38 10 -28 16 8 5 24 9 35 9 12 0 27 6
33 14 14 17 -12 26 -77 26 -24 0 -57 8 -75 17 l-32 16 34 9 c34 9 34 10 11 21
-36 18 -39 42 -5 33 36 -9 70 2 56 18 -13 16 -4 26 23 27 21 0 21 0 1 9 -11 4
-39 13 -62 19 -32 9 -43 17 -43 31 0 10 -4 22 -10 25 -20 13 -9 24 28 27 l37
3 -37 23 c-34 21 -51 52 -29 52 5 0 1 16 -9 35 -10 20 -21 58 -25 85 -6 46
-25 62 -25 22 0 -9 -7 -30 -15 -45 -8 -15 -12 -34 -9 -42 3 -8 -4 -19 -17 -26
-21 -11 -21 -13 -6 -24 16 -11 15 -14 -8 -29 -30 -20 -32 -36 -5 -36 19 0 19
-2 7 -32 -10 -25 -22 -35 -50 -41 -48 -12 -47 -23 3 -31 47 -7 51 -22 13 -37
l-28 -11 28 -10 c15 -5 27 -13 27 -18 0 -15 -31 -33 -66 -39 -44 -7 -44 -23
-2 -34 l33 -9 -26 -13 c-21 -11 -70 -21 -126 -24 -21 -2 -14 -21 7 -21 22 0
27 -15 8 -23 -24 -10 15 -27 60 -27 23 0 42 -4 42 -10 0 -5 -21 -24 -47 -41
-40 -28 -44 -33 -27 -40 16 -6 11 -10 -29 -28 -69 -30 -96 -27 -110 13 -5 13
-3 17 7 13 14 -5 36 10 36 25 0 4 -9 8 -20 8 -10 0 -24 9 -30 20 -9 17 -8 20
7 20 17 1 17 1 1 14 -10 7 -15 15 -13 18 3 3 -1 22 -8 43 l-14 39 -10 -30 c-6
-16 -10 -32 -9 -35 1 -3 -5 -13 -13 -22 -8 -11 -9 -17 -3 -17 18 0 1 -30 -17
-30 -14 -1 -13 -3 3 -15 11 -8 15 -15 8 -15 -6 0 -9 -6 -6 -14 3 -8 -4 -16
-18 -20 -19 -5 -20 -8 -8 -16 12 -7 8 -11 -17 -16 -34 -7 -36 -34 -2 -34 24 0
25 -16 2 -29 -10 -6 -13 -11 -8 -11 6 0 -1 -7 -15 -15 -19 -11 -21 -14 -7 -15
42 0 7 -30 -36 -30 -25 0 -12 -16 18 -22 19 -4 19 -4 -3 -16 -12 -7 -45 -16
-72 -19 l-50 -6 0 -48 0 -49 4000 0 4000 0 0 50 c0 47 -2 50 -25 50 -15 0 -25
6 -25 14 0 8 -6 14 -12 13 -7 0 -24 1 -38 2 -20 1 -22 3 -10 11 8 5 24 7 34 4
16 -5 18 -3 11 12 -4 11 -7 27 -7 36 0 12 -4 15 -15 11 -15 -6 -15 -4 0 17 25
36 22 40 -25 36 -24 -2 -32 -1 -19 1 22 4 51 25 51 36 0 2 -12 3 -27 1 -17 -2
-20 -1 -8 2 35 10 41 24 10 24 -28 0 -28 1 -9 16 16 13 16 15 2 10 -10 -3 -20
-1 -23 4 -3 5 4 11 15 15 11 3 20 10 20 15 0 5 -6 7 -14 4 -8 -3 -23 0 -33 6
-14 9 -14 10 -2 7 12 -4 15 -1 12 13 -3 10 0 21 6 24 6 4 11 12 11 18 0 6 -6
6 -15 -2 -9 -7 -18 -10 -22 -6 -3 3 -2 6 4 6 6 0 9 9 6 20 -3 11 -9 17 -14 14
-5 -3 -9 7 -9 21 0 15 -4 24 -10 20 -5 -3 -10 1 -10 9 0 25 -15 26 -42 1 -19
-17 -25 -33 -24 -55 2 -21 -2 -29 -10 -26 -17 6 -27 -25 -18 -59 6 -24 4 -25
-18 -20 -25 6 -26 4 -19 -46 1 -3 11 -11 24 -18 l22 -12 -22 5 c-25 5 -29 -4
-11 -22 16 -16 -2 -15 -24 1 -11 9 -14 22 -11 40 5 23 2 27 -18 27 -18 0 -20
3 -11 12 17 17 15 28 -5 22 -12 -4 -9 1 7 14 l25 21 -40 4 c-34 3 -37 5 -17
12 29 10 29 28 0 20 -20 -5 -21 -5 -5 5 9 6 15 15 12 21 -4 5 -1 9 4 9 6 0 11
5 11 10 0 10 -39 7 -62 -5 -7 -4 -2 2 11 13 21 17 22 20 8 23 -15 4 -16 7 -2
33 21 39 19 52 -5 31 -11 -10 -23 -15 -27 -12 -3 4 -2 7 4 7 5 0 10 14 11 30
1 27 -2 30 -20 24 -19 -6 -20 -3 -15 24 5 24 3 30 -7 26 -9 -3 -18 7 -26 28
-11 32 -12 32 -21 10 -4 -12 -19 -26 -33 -32 -31 -12 -42 -30 -25 -42 11 -7
11 -11 2 -15 -9 -3 -10 -10 -3 -24 10 -18 7 -21 -17 -18 -3 0 -11 -7 -16 -17
-8 -14 -5 -22 14 -37 24 -20 24 -20 2 -14 -13 3 -26 1 -29 -4 -3 -5 2 -9 10
-9 10 0 13 -6 10 -15 -4 -10 -16 -14 -33 -13 -21 2 -26 -1 -24 -17 1 -10 -3
-27 -8 -37 -7 -12 -6 -18 1 -18 7 0 10 -6 7 -12 -2 -7 0 -21 5 -30 10 -21 -11
-25 -30 -6 -7 7 -12 8 -12 4 0 -5 -8 2 -18 14 l-18 22 -52 -32 c-50 -31 -54
-31 -77 -16 -18 12 -25 25 -25 49 0 51 31 222 41 225 16 6 -11 41 -43 58 -18
9 -59 21 -93 26 -33 5 -76 11 -96 14 -41 6 -69 45 -49 69 5 6 7 15 3 18 -6 6
13 53 27 67 3 3 20 24 38 48 25 31 29 42 17 42 -9 0 -27 -11 -41 -25 -13 -13
-33 -29 -44 -35 -11 -6 -20 -20 -20 -30 0 -11 -4 -20 -9 -20 -5 0 -18 -3 -28
-6 -14 -5 -15 -4 -4 4 8 6 15 19 16 29 0 10 4 23 7 28 9 14 21 85 15 85 -2 0
-12 -15 -21 -32 -9 -18 -26 -49 -38 -68 -11 -19 -22 -52 -23 -73 -1 -21 -10
-46 -20 -57 -19 -21 -14 -50 9 -50 9 0 12 -7 9 -19 -7 -29 45 -151 78 -182 36
-33 40 -58 7 -37 -69 45 -65 44 -95 15 -15 -16 -47 -44 -71 -64 -23 -19 -45
-47 -48 -60 -6 -23 -10 -24 -48 -19 -37 6 -43 4 -60 -23 -14 -21 -31 -31 -59
-35 -22 -4 -48 -17 -62 -31 -19 -22 -24 -23 -29 -9 -5 12 -14 15 -40 10 -29
-6 -37 -3 -55 20 -21 26 -21 26 -61 10 -38 -15 -41 -15 -59 3 -11 11 -38 25
-61 32 -32 10 -46 21 -61 51 -11 21 -31 43 -45 48 -13 5 -27 17 -31 26 -7 19
-45 12 -81 -17 -14 -10 -40 -19 -58 -19 -24 0 -34 -5 -39 -20 -4 -14 -15 -20
-36 -20 -27 0 -30 3 -24 22 7 23 16 32 52 54 17 11 17 13 1 45 -22 44 -24 77
-8 112 17 34 5 48 -16 19 -13 -18 -19 -20 -36 -11 -11 6 -33 9 -48 6 -21 -5
-30 -1 -38 16 -10 21 -11 20 -11 -9 -1 -16 4 -35 11 -42 16 -16 2 -28 -16 -13
-11 9 -20 10 -36 1 -33 -18 -21 -44 23 -48 43 -4 47 -19 13 -52 -29 -26 -85
-39 -173 -40 -93 0 -161 -18 -179 -45 -13 -20 -20 -22 -44 -15 -23 7 -31 4
-42 -11 -12 -19 -15 -18 -73 23 -33 23 -61 46 -63 50 -2 4 -23 17 -48 27 -38
17 -44 24 -44 51 0 22 6 33 20 38 18 7 13 14 -45 72 -36 35 -65 70 -65 77 0 7
-6 13 -13 13 -7 0 -31 18 -52 40 -21 22 -44 40 -49 40 -6 0 -51 -40 -101 -89
-89 -87 -90 -88 -132 -84 l-43 5 0 45 c0 39 2 44 15 33 8 -7 15 -9 15 -4 0 5
-15 21 -33 35 -24 20 -40 25 -65 21 -21 -3 -32 0 -32 8 0 8 9 10 26 6 25 -7
25 -6 11 15 -15 20 -29 31 -84 60 -19 10 -29 5 -92 -46 -39 -31 -71 -59 -71
-61 0 -2 24 -4 53 -4 40 0 54 4 54 14 0 11 -9 13 -36 9 -45 -7 -30 12 17 20
29 6 32 4 32 -18 0 -22 5 -25 33 -25 23 0 34 5 34 14 0 11 -8 13 -29 9 -17 -3
-28 -1 -28 6 0 6 9 11 19 11 11 0 26 3 35 6 12 5 16 0 16 -19 0 -24 4 -26 48
-30 26 -2 -24 -4 -111 -4 -116 0 -161 -4 -170 -13 -10 -10 -8 -12 6 -7 15 6
17 0 17 -46 l0 -53 -77 -18 c-106 -25 -230 -69 -340 -121 -91 -43 -93 -43 -93
-21 0 28 -33 72 -61 81 -27 9 -97 -65 -113 -119 -10 -34 -17 -40 -55 -52 -39
-11 -47 -11 -66 4 -13 9 -34 40 -48 68 -16 33 -44 65 -76 90 -43 34 -52 46
-62 92 -7 28 -13 52 -15 52 -1 0 -15 -5 -30 -10 -14 -6 -42 -8 -60 -4 -29 5
-34 10 -34 34 0 15 -9 38 -19 52 -11 13 -22 40 -26 60 -5 28 -14 39 -37 49
-23 9 -38 31 -71 101 l-42 88 -204 -170 c-113 -93 -209 -170 -214 -170 -5 0
-32 -20 -60 -44 -29 -24 -84 -64 -123 -89 -86 -56 -290 -157 -315 -157 -20 0
-29 12 -44 54 -8 23 -20 33 -55 44 -76 25 -92 41 -94 98 -3 115 -116 179 -219
124 l-37 -20 -50 37 c-43 32 -47 38 -32 49 14 11 15 15 3 38 -8 14 -22 26 -32
26 -27 0 -28 21 -2 59 13 18 23 44 23 57 0 16 6 24 18 24 19 0 54 35 44 45 -3
3 4 8 16 12 27 7 27 8 1 44 -17 24 -27 29 -64 29 -26 0 -45 -5 -48 -12z m1440
-175 c-8 -15 -24 -36 -36 -47 -11 -10 -34 -62 -51 -118 -17 -55 -35 -111 -40
-124 l-10 -25 -29 20 -29 21 -41 -116 c-23 -63 -41 -119 -41 -123 0 -20 -147
-121 -175 -121 -8 0 -40 -23 -71 -50 -37 -33 -61 -47 -67 -41 -6 6 -23 3 -47
-9 l-38 -19 -43 65 c-23 36 -60 81 -82 99 -22 19 -39 37 -36 39 2 2 51 27 108
56 57 29 143 79 190 110 119 78 121 78 121 31 0 -50 -8 -71 -27 -71 -9 0 -13
-6 -9 -15 3 -9 0 -15 -8 -15 -15 0 -26 -21 -26 -51 0 -17 8 -19 70 -19 l70 0
0 31 c0 22 -5 32 -19 36 -12 3 -17 11 -14 19 3 8 -1 14 -8 14 -11 0 -13 15
-11 66 l4 65 65 52 c35 29 126 103 200 165 75 62 138 110 140 108 3 -2 -2 -17
-10 -33z m-1443 -155 c14 -27 13 -27 -29 9 -27 24 -39 41 -32 45 14 9 43 -16
61 -54z m3026 22 c11 -7 -4 -10 -50 -10 -46 0 -61 3 -50 10 8 5 31 10 50 10
19 0 42 -5 50 -10z m405 -60 c4 -6 -5 -10 -20 -10 -15 0 -24 4 -20 10 3 6 12
10 20 10 8 0 17 -4 20 -10z m-3334 -47 c15 -12 15 -18 2 -56 -12 -33 -12 -50
-4 -79 15 -50 54 -94 95 -108 l33 -11 -41 -43 c-22 -24 -70 -60 -106 -81 -36
-21 -77 -49 -92 -63 -26 -24 -30 -25 -70 -12 l-43 13 27 11 c65 28 105 98 92
163 -5 27 -2 31 45 57 54 29 71 63 27 52 -14 -3 -27 -2 -30 3 -6 10 10 157 20
172 6 10 19 5 45 -18z m225 -17 c29 -29 34 -41 34 -80 0 -56 -22 -94 -67 -112
-96 -41 -182 22 -170 123 2 24 7 47 11 50 3 3 26 -13 51 -36 44 -40 65 -51 65
-31 0 6 -3 10 -7 10 -5 0 -28 17 -53 39 l-44 38 29 16 c17 9 50 16 74 17 36 0
49 -6 77 -34z m1197 -64 c18 -18 57 -47 87 -64 89 -51 120 -78 146 -131 72
-141 225 -220 338 -173 57 24 65 21 90 -36 l24 -53 -37 -7 c-58 -11 -265 -9
-323 3 -33 7 -79 30 -123 59 -117 79 -125 81 -202 70 -37 -5 -144 -32 -238
-60 -164 -49 -314 -85 -322 -76 -7 7 57 51 147 101 123 70 140 84 166 143 13
28 27 52 30 52 4 0 13 -8 20 -17 11 -16 18 -7 57 77 25 52 53 121 63 154 l18
59 14 -34 c8 -19 28 -49 45 -67z m2022 38 l59 -60 -45 0 -45 0 -3 -52 c-3 -72
-11 -75 -11 -5 l0 57 -40 0 c-29 0 -40 -4 -40 -15 0 -8 5 -15 10 -15 6 0 10
-20 10 -45 0 -41 -2 -45 -25 -45 -23 0 -25 4 -25 45 0 25 5 45 10 45 6 0 10 7
10 15 0 11 -11 15 -40 15 l-40 0 -2 -57 -2 -58 -3 58 -4 57 -47 0 -46 0 59 60
59 60 71 0 71 0 59 -60z m-635 25 c0 -8 -9 -15 -20 -15 -11 0 -20 7 -20 15 0
8 9 15 20 15 11 0 20 -7 20 -15z m83 8 c-7 -2 -19 -2 -25 0 -7 3 -2 5 12 5 14
0 19 -2 13 -5z m97 -9 c0 -8 -9 -14 -20 -14 -11 0 -20 6 -20 13 0 7 9 13 20
14 11 1 20 -4 20 -13z m-3095 -153 l-6 -24 -26 25 -26 26 18 54 c10 29 20 60
23 68 8 22 24 -121 17 -149z m2998 132 c-7 -2 -19 -2 -25 0 -7 3 -2 5 12 5 14
0 19 -2 13 -5z m-83 -18 c0 -8 -9 -15 -20 -15 -11 0 -20 7 -20 15 0 8 9 15 20
15 11 0 20 -7 20 -15z m180 1 c0 -9 -9 -14 -20 -13 -11 1 -20 7 -20 14 0 7 9
13 20 13 11 0 20 -6 20 -14z m-97 -3 c-7 -2 -19 -2 -25 0 -7 3 -2 5 12 5 14 0
19 -2 13 -5z m0 -30 c-7 -2 -19 -2 -25 0 -7 3 -2 5 12 5 14 0 19 -2 13 -5z
m295 -71 c3 -17 -2 -22 -17 -22 -16 0 -21 6 -21 26 0 33 33 30 38 -4z m292 3
c0 -16 -6 -25 -15 -25 -9 0 -15 9 -15 25 0 16 6 25 15 25 9 0 15 -9 15 -25z
m-3727 -75 c-9 -34 -13 -64 -9 -67 3 -4 29 4 56 17 60 28 76 20 66 -33 -14
-73 -107 -118 -174 -83 -44 23 -62 53 -62 108 0 38 6 54 28 79 24 27 85 52
103 42 4 -1 0 -30 -8 -63z m5824 64 c28 -8 48 -55 35 -81 -21 -37 -80 -86 -98
-79 -14 5 -16 15 -10 53 8 60 27 113 41 113 5 0 20 -3 32 -6z m-2517 -24 c0
-10 -64 -31 -153 -50 -57 -11 -86 -30 -48 -30 47 0 408 -72 428 -86 13 -8 23
-21 23 -28 0 -23 -80 -55 -215 -88 -69 -17 -124 -33 -122 -35 2 -2 136 -17
298 -33 292 -30 428 -49 504 -72 l40 -12 -40 -7 c-52 -9 -1134 37 -1288 55
-119 13 -152 25 -130 47 18 18 244 73 465 114 115 21 206 40 204 42 -2 2 -68
15 -147 28 -242 41 -291 63 -221 98 72 37 402 84 402 57z m-3215 -10 c3 -5 1
-10 -4 -10 -6 0 -11 5 -11 10 0 6 2 10 4 10 3 0 8 -4 11 -10z m1092 -6 c-3 -3
-12 -4 -19 -1 -8 3 -5 6 6 6 11 1 17 -2 13 -5z m4543 -31 c-1 -28 -3 -34 -10
-22 -8 14 -3 59 6 59 2 0 4 -17 4 -37z m-4594 -10 c-10 -10 -19 5 -10 18 6 11
8 11 12 0 2 -7 1 -15 -2 -18z m34 12 c0 -8 -4 -15 -10 -15 -5 0 -10 7 -10 15
0 8 5 15 10 15 6 0 10 -7 10 -15z m30 0 c0 -8 -4 -15 -10 -15 -5 0 -10 7 -10
15 0 8 5 15 10 15 6 0 10 -7 10 -15z m40 0 c0 -8 -7 -15 -15 -15 -8 0 -15 7
-15 15 0 8 7 15 15 15 8 0 15 -7 15 -15z m4666 -31 c-3 -8 -10 -13 -16 -9 -6
3 -5 16 3 32 9 21 13 23 15 9 2 -9 1 -24 -2 -32z m-5867 0 c-28 -14 -32 -13
-24 8 4 10 14 14 27 10 20 -5 20 -5 -3 -18z m6141 -4 c0 -5 -2 -10 -4 -10 -3
0 -8 5 -11 10 -3 6 -1 10 4 10 6 0 11 -4 11 -10z m-5626 -59 c23 -16 59 -48
79 -70 41 -45 91 -121 84 -127 -2 -3 -42 13 -87 35 -68 33 -91 40 -129 37 -36
-3 -211 -54 -288 -83 -7 -3 -13 -1 -13 4 0 5 30 30 68 56 37 25 103 76 147
111 44 36 84 65 88 66 5 0 27 -13 51 -29z m6123 -7 c-3 -3 -12 -4 -19 -1 -8 3
-5 6 6 6 11 1 17 -2 13 -5z m-7431 -100 c15 -4 20 -11 17 -25 -6 -22 -74 -44
-110 -34 -32 8 -24 28 13 36 16 4 23 7 16 8 -7 0 -10 6 -7 11 7 11 38 13 71 4z
m7269 -33 c-6 -10 -45 -22 -45 -14 0 3 8 12 17 19 18 13 37 9 28 -5z m-6625
-56 l45 -24 -72 -1 c-74 0 -90 9 -61 38 17 17 37 14 88 -13z m-677 -42 c-7 -2
-19 -2 -25 0 -7 3 -2 5 12 5 14 0 19 -2 13 -5z"/>
<path d="M4675 710 c-4 -6 7 -10 24 -10 17 0 31 5 31 10 0 6 -11 10 -24 10
-14 0 -28 -4 -31 -10z"/>
<path d="M4740 710 c0 -5 14 -10 31 -10 17 0 28 4 24 10 -3 6 -17 10 -31 10
-13 0 -24 -4 -24 -10z"/>
<path d="M4660 665 c0 -16 6 -25 15 -25 18 0 20 16 3 23 -10 4 -10 6 0 6 17 1
15 21 -3 21 -9 0 -15 -9 -15 -25z"/>
<path d="M4722 665 c0 -16 2 -22 5 -12 2 9 2 23 0 30 -3 6 -5 -1 -5 -18z"/>
<path d="M4742 665 c0 -16 2 -22 5 -12 2 9 2 23 0 30 -3 6 -5 -1 -5 -18z"/>
<path d="M4785 680 c-3 -5 3 -10 14 -10 12 0 21 5 21 10 0 6 -6 10 -14 10 -8
0 -18 -4 -21 -10z"/>
<path d="M4780 650 c0 -5 9 -10 20 -10 11 0 20 5 20 10 0 6 -9 10 -20 10 -11
0 -20 -4 -20 -10z"/>
<path d="M4797 956 c-11 -27 2 -82 24 -102 13 -12 19 -32 20 -63 1 -45 1 -45
9 -13 9 41 3 70 -21 97 -10 11 -19 38 -21 60 -2 30 -5 35 -11 21z"/>
<path d="M4330 935 c0 -8 12 -25 26 -39 17 -15 25 -30 21 -40 -4 -9 -2 -16 3
-16 19 0 10 49 -10 60 -11 6 -20 20 -20 30 0 11 -4 20 -10 20 -5 0 -10 -7 -10
-15z"/>
</g>
</svg>
